/* XPM */
static char *out[] = {
/* columns rows colors chars-per-pixel */
"64 64 79 1 ",
"  c None",
". c #7E4021",
"X c #824222",
"o c #824322",
"O c #844422",
"+ c #854522",
"@ c #894823",
"# c #904A23",
"$ c #964F24",
"% c #974F24",
"& c #9A4F24",
"* c #925327",
"= c #975024",
"- c #9D5124",
"; c #9E5124",
": c #9E5224",
"> c #935328",
", c #975729",
"< c #A15223",
"1 c #A15323",
"2 c #A15324",
"3 c #A25425",
"4 c #A25525",
"5 c #A35525",
"6 c #A35725",
"7 c #A25426",
"8 c #A45625",
"9 c #A45725",
"0 c #A65C26",
"q c #A75C26",
"w c #A85B26",
"e c #A85E26",
"r c #A85E27",
"t c #A95E27",
"y c #A95F27",
"u c #AA5F27",
"i c #AB5F27",
"p c #AC5F27",
"a c #A35628",
"s c #AD6027",
"d c #AD6127",
"f c #AE6227",
"g c #AF6327",
"h c #A5602A",
"j c #AD6228",
"k c #AE6228",
"l c #AF6328",
"z c #B16529",
"x c #B2672A",
"c c #B3672A",
"v c #B76D2C",
"b c #A7633A",
"n c #A86339",
"m c #A9653B",
"M c #D3933F",
"N c #DD9940",
"B c #DD9A41",
"V c #DE9A41",
"C c #E7A948",
"Z c #E9AA49",
"A c #EEAD49",
"S c #EEAE4A",
"D c #F5B74E",
"F c #CAC7C4",
"G c #CCC8C5",
"H c #D9D0CC",
"J c #D8D1CD",
"K c #CFD6D9",
"L c #D0D7DA",
"P c #D0D7DB",
"I c #D0D8DB",
"U c #D2D8DB",
"Y c #D2D9DC",
"T c #DFE2E3",
"R c #DFE2E4",
"E c #E0E3E6",
"W c #E2E4E6",
"Q c #E3E4E6",
"! c #E3E5E7",
/* pixels */
"         7333333333333333333333333333333333333333333337         ",
"         7333333333333333333333333333333333333333333337         ",
"         7332222222222222222222222222222222222222222337         ",
"         7323555555555555555555555555555555555555553237         ",
"         7325pddddddddddddddddddddddddddddddddddddp5237         ",
"         7325dlllllllllllllllllllllllllllllllllllld5237         ",
"         7325dlfddddddddddddddfllfddddddddddddddfld5237         ",
"         7325dld9555555555554%ulld9555555555554=uld5237         ",
"         7325dld525555555554#+tlld525555555554#+tld5237         ",
"         7325dld55pdddddddd6oOtlld55pdddddddd6oOtld5237         ",
"         7325dld55dlddddddw:XOtlld55dlddddddw:XOtld5237         ",
"         7325dld55dd9555553-oOtlld55dd9555553-oOtld5237         ",
"         7325dld55dd5222223-oOtlld55dd5222223-oOtld5237         ",
"         7325dld55dd5233333-oOtlld55dd5233333-oOtld5237         ",
"         7325dld55dd5233333-oOtlld55dd5233333-oOtld5237         ",
"         7325dld55dd5233333-oOtlld55dd5233333-oOtld5237         ",
"         7325dld55dd5233333-oOtlld55dd5233333-oOtld5237         ",
"         7325dld55dd5233333-oOtlld55dd5233333-oOtld5237         ",
"         7325dld55dd5233333-oOtlld55dd5233333-oOtld5237         ",
"         7325dld55dd5233333-oOtlld55dd5233333-oOtld5237         ",
"         7325dld55dd5233333-oOtlld55dd5233333-oOtld5237         ",
"         7325dld55dd5233333-oOtlld55dd5233333-oOtld5237         ",
"         7325dld55dd5233333-oOtlld55dd5233333-oOtld5237         ",
"         7325dld55dd5233333-oOtlld55dd5233333-oOtld5237         ",
"         7325dld55dd5233333-oOtlld55dd5233333-oOtld5237         ",
"         7325dld55dd5233333-oOtlld55dd5233333-oOtld5237         ",
"         7325dld55dd5233333-oOtlld55dd5233333-oOtld5237         ",
"         7325dld55dw3333333;oOtlld55dw3333333;oOtld5237         ",
"         7325dld546:------;&XOtlld546:------;&XOtld5237         ",
"         7325dld4#oXoooooooX.Otlld4#oXoooooooX.Otld5237         ",
"         7325dld%+OOOOOOOOOOO@ylld=+OOOOOOOOOOO@yld5237         ",
"         7325dlfuttttttttttttyfllfutttttreeeeeeyfld5237         ",
"         7325dlllllllllllllllllklllllllgcvvvvvvcfld5237         ",
"         7325dllllllllllllllllllllllllfxBSAAAAANxfd5237         ",
"         7325dllllllllllllllllllllllllfxBZCCCZDSvfd5237         ",
"         7325dlllllllllllllllllllllllllfxh>>*,MVxfd5237         ",
"         7325dlfddddddddddddddfllfddddddsiq000jzfld5237         ",
"         7325dld9555555555554%ulld9555555555583$uld5237         ",
"         7325dld525555555554#+tlld525555555554#+tld5237         ",
"         7325dld55pdddddddd6oOtlld55pdddddddd6oOtld5237         ",
"         7325dld55dlddddddw:XOtlld55dlddddddw:XOtld5237         ",
"         7325dld55dd9555553-oOtlld55dd9555553-oOtld5237         ",
"         7325dld55dd5222223-oOtlld55dd5222223-oOtld5237         ",
"         7325dld55dd5233333-oOtlld55dd5233333-oOtld5237         ",
"         7325dld55dd5233333-oOtlld55dd5233333-oOtld5237         ",
"         7325dld55dd5233333-oOtlld55dd5233333-oOtld5237         ",
"         7325dld55dd5233333-oOtlld55dd5233333-oOtld5237         ",
"         7325dld55dd5233333-oOtlld55dd5233333-oOtld5237         ",
"         7325dld55dd5233333-oOtlld55dd5233333-oOtld5237         ",
"         7325dld55dd5233333-oOtlld55dd5233333-oOtld5237         ",
"         7325dld55dd5233333-oOtlld55dd5233333-oOtld5237         ",
"         7325dld55dd5233333-oOtlld55dd5233333-oOtld5237         ",
"         7325dld55dd5233333-oOtlld55dd5233333-oOtld5237         ",
"         7325dld55dd5233333-oOtlld55dd5233333-oOtld5237         ",
"         7325dld55dd5233333-oOtlld55dd5233333-oOtld5237         ",
"         7325dld55dd5233333-oOtlld55dd5233333-oOtld5237         ",
"         7325dld55dd5233333-oOtlld55dd5233333-oOtld5237         ",
"         7325dld55dw3333333;oOtlld55dw3333333;oOtld5237         ",
"         a225dld546:------;&XOtlld546:------;&XOtld522a         ",
" WWQQQQ!Hn125dld4#oXoooooooX.Otlld4#oXoooooooX.Otld521nH!QQQQWW ",
" TRRRRREJm<25dld%+OOOOOOOOOOO@ylld%+OOOOOOOOOOO@yld52<mJERRRRRT ",
" UUUUUUYGb<25dlfuttttttttttttyfllfuttttttttttttyfld52<bGYUUUUUU ",
" KKKKKKPFb<25dlllllllllllllllllklllllllllllllllllld52<bFPKKKKKK ",
" LLLLLLIFb<25dlllllllllllllllllllllllllllllllllllld52<bFILLLLLL "
};
