/* XPM */
static char *_2e24e752ed943a1ee7b7a7d3e0db4e5DFTAcvQDFrgO3yRT[] = {
/* columns rows colors chars-per-pixel */
"64 64 142 2 ",
"   c None",
".  c #A55825",
"X  c #AF6328",
"o  c #A85B26",
"O  c #AB5E27",
"+  c #A35525",
"@  c #AD6027",
"#  c #A45725",
"$  c #A95C26",
"%  c #AC5F27",
"&  c #A35525",
"*  c #A65926",
"=  c #A55725",
"-  c #A25425",
";  c #A15324",
":  c #A05525",
">  c #9B5124",
",  c #A25324",
"<  c #A15525",
"1  c #9D5324",
"2  c #9A4F24",
"3  c #964D24",
"4  c #834322",
"5  c #A35525",
"6  c #9C5124",
"7  c #874522",
"8  c #804122",
"9  c #A95D26",
"0  c #964D23",
"q  c #814222",
"w  c #AC6027",
"e  c #854422",
"r  c #7D4021",
"t  c #A95D27",
"y  c #944F24",
"u  c #AC6027",
"i  c #995225",
"p  c #904D24",
"a  c #AE6127",
"s  c #AD6127",
"d  c #A45625",
"f  c #9A5124",
"g  c #A45B26",
"h  c #9E5324",
"j  c #9E5625",
"k  c #984E24",
"l  c #9C5024",
"z  c #864422",
"x  c #955024",
"c  c #A45725",
"v  c #9A5024",
"b  c #824222",
"n  c #9F5324",
"m  c #874522",
"M  c #904B23",
"N  c #AD6027",
"B  c #995124",
"V  c #7F4122",
"C  c #AB5F27",
"Z  c #A45625",
"A  c #AD6127",
"S  c #A55825",
"D  c #974E24",
"F  c #A95C26",
"G  c #AA5D26",
"H  c #A25325",
"J  c #A85B26",
"K  c #AC6027",
"L  c #A35525",
"P  c #AE6127",
"I  c #A55825",
"U  c #A25425",
"Y  c #A15324",
"T  c #A95C26",
"R  c #AF6328",
"E  c #AA5D26",
"W  c #A15325",
"Q  c #AE6227",
"!  c #A55825",
"~  c #8F4A23",
"^  c #7E4021",
"/  c #7F4122",
"(  c #A05826",
")  c #AC6027",
"_  c #A25525",
"`  c #A65825",
"'  c #A85B26",
"]  c #974E24",
"[  c #955124",
"{  c #AB5E27",
"}  c #A35425",
"|  c #9A4F24",
" . c #9A5024",
".. c #8C4823",
"X. c #924B23",
"o. c #804122",
"O. c #7D4021",
"+. c #9F5826",
"@. c #7D3F21",
"#. c #955024",
"$. c #904D24",
"%. c #A55C26",
"&. c #9E5725",
"*. c #AE6228",
"=. c #AE6127",
"-. c #B76D2C",
";. c #D08A39",
":. c #D5903C",
">. c #CD8738",
",. c #B4692A",
"<. c #D6913D",
"1. c #F7B84E",
"2. c #F6B74E",
"3. c #CD8638",
"4. c #CF8939",
"5. c #F2B34C",
"6. c #F3B44D",
"7. c #F4B54D",
"8. c #D48F3C",
"9. c #B26629",
"0. c #BD7530",
"q. c #AA6930",
"w. c #A1632E",
"e. c #A0622E",
"r. c #B27435",
"t. c #F0B14B",
"y. c #A25925",
"u. c #8F4C23",
"i. c #8E4B23",
"p. c #8D4A23",
"a. c #924F25",
"s. c #C27E36",
"d. c #B66C2C",
"f. c #AD6127",
"g. c #AA5E27",
"h. c #A45625",
"j. c #AD6027",
"k. c #A45725",
"l. c #A35525",
"z. c #8F4923",
"x. c #AB5F27",
"c. c white",
/* pixels */
"U U U U Y T R R R E W Y T R Q ! Y U U U U U U U U U ~ ^ / ( R R R R ) _ Y ` Q R ' Y U U U U U U U U U ] / ^ [ R R R { U Y U U U ",
"U U U U Y T R R R E W Y T R Q ! Y U U U U U U U U U ~ ^ / ( R R R R ) _ Y ` Q R ' Y U U U U U U U U U ] / ^ [ R R R { U Y U U U ",
"U U U U Y T R R R E W Y T R Q ! Y U U U U U U U U U ~ ^ / ( R R R R ) _ Y ` Q R ' Y U U U U U U U U U ] / ^ [ R R R { U Y U U U ",
"U U U U Y T R R R E W Y T R Q ! Y U U U U U U U U U ~ ^ / ( R R R R ) _ Y ` Q R ' Y U U U U U U U U U ] / ^ [ R R R { U Y U U U ",
"U U U U Y T R R R E W Y T R Q ! Y U U U U U U U U U ~ ^ / ( R R R R ) _ Y ` Q R ' Y U U U U U U U U U ] / ^ [ R R R { U Y U U U ",
"U U U U Y T R R R E W Y T R Q ! Y U U U U U U U U U ~ ^ / ( R R R R ) _ Y ` Q R ' Y U U U U U U U U U ] / ^ [ R R R { U Y U U U ",
"U U U U Y T R R R E W Y T R Q ! Y U U U U U U U U U ~ ^ / ( R R R R ) _ Y ` Q R ' Y U U U U U U U U U ] / ^ [ R R R { U Y U U U ",
"U U U U Y T R R R E W Y T R Q ! Y U U U U U U U U U ~ ^ / ( R R R R ) _ Y ` Q R ' Y U U U U U U U U U ] / ^ [ R R R { U Y U U U ",
"U U U U Y T R R R E W Y T R Q ! Y U U U U U U U U U ~ ^ / ( R R R R ) _ Y ` Q R ' Y U U U U U U U U U ] / ^ [ R R R { U Y U U U ",
"U U U U Y T R R R E W Y T R Q ! Y U U U U U U U U U ~ ^ / ( R R R R ) _ Y ` Q R ' Y U U U U U U U U U ] / ^ [ R R R { U Y U U U ",
"U U U U Y T R R R E W Y T R Q ! Y U U U U U U U U U ~ ^ / ( R R R R ) _ Y ` Q R ' Y U U U U U U U U U ] / ^ [ R R R { U Y U U U ",
"U U U U Y T R R R E W Y T R Q ! Y U U U U U U U U U ~ ^ / ( R R R R ) _ Y ` Q R ' Y U U U U U U U U U ] / ^ [ R R R { U Y U U U ",
"U U U U Y T R R R E W Y T R Q ! Y U U U U U U U U U ~ ^ / ( R R R R ) _ Y ` Q R ' Y U U U U U U U U U ] / ^ [ R R R { U Y U U U ",
"U U U U Y T R R R E W Y T R Q ! Y U U U U U U U U U ~ ^ / ( R R R R ) _ Y ` Q R ' Y U U U U U U U U U ] / ^ [ R R R { U Y U U U ",
"U U U U Y T R R R E W Y T R Q ! Y U U U U U U U U U ~ ^ / ( R R R R ) _ Y ` Q R ' Y U U U U U U U U U ] / ^ [ R R R { U Y U U U ",
"U U U U Y T R R R E W Y T R Q ! Y U U U U U U U U U ~ ^ / ( R R R R ) _ Y ` Q R ' Y U U U U U U U U U ] / ^ [ R R R { U Y U U U ",
"U U U U Y T R R R E W Y T R Q ! Y U U U U U U U U U ~ ^ / ( R R R R ) _ Y ` Q R ' Y U U U U U U U U U ] / ^ [ R R R { U Y U U U ",
"U U U U Y T R R R E W Y T R Q ! Y U U U U U U U U U ~ ^ / ( R R R R ) _ Y ` Q R ' Y U U U U U U U U U ] / ^ [ R R R { U Y U U U ",
"U U U U Y T R R R E W Y T R Q ! Y U U U U U U U U U ~ ^ / ( R R R R ) _ Y ` Q R ' Y U U U U U U U U U ] / ^ [ R R R { U Y U U U ",
"U U U U Y T R R R E W Y T R Q ! Y U U U U U U U U U ~ ^ / ( R R R R ) _ Y ` Q R ' Y U U U U U U U U U ] / ^ [ R R R { U Y U U U ",
"U U U U Y T R R R E W Y T R   . Y U U U U U U U U U ~ ^ / ( R R R R ) _ Y ` Q X o Y U U U U U U U U U ] / ^ [ R R R { U Y U U U ",
"U U U U Y T R R R E W Y T X O + Y U U U U U U U U U ~ ^ / ( R R R R ) _ Y ` X @ # Y U U U U U U U U U ] / ^ [ R R R { U Y U U U ",
"U U U U Y T R R R E W Y $ % & U U U U U U U U U U U ~ ^ / ( R R R R ) _ Y * @ = - U U U U U U U U U } ] / ^ [ R R R { U Y U U U ",
"U U U U Y T R R R E U ; : > | | | | | | | | | | |  ...^ / ( R R R R ) _ , < 1 2 | | | | | | | | | |  .X./ ^ [ R R R { U Y U U U ",
"U U U U Y T R R R E - 3 4 o.o.o.o.o.o.o.o.o.o.o.o.o./ ^ / ( R R R R ) 5 6 7 8 o.o.o.o.o.o.o.o.o.o.o.o.o./ ^ [ R R R { U Y U U U ",
"U U U U Y T R R R 9 0 q O.^ ^ ^ ^ ^ ^ ^ ^ ^ ^ ^ ^ ^ ^ ^ ^ +.R R R R w 6 e r ^ ^ ^ ^ ^ ^ ^ ^ ^ ^ ^ ^ ^ ^ ^ @.#.R R R { U Y U U U ",
"U U U U Y T R R R t y $.$.$.$.$.$.$.$.$.$.$.$.$.$.$.$.$.$.%.R R R R u i p $.$.$.$.$.$.$.$.$.$.$.$.$.$.$.$.$.&.R R R { U Y U U U ",
"U U U U Y T R R R     Q Q Q Q Q Q Q Q Q Q Q Q Q Q Q Q Q Q *.R R R R     Q Q Q Q Q Q Q Q Q Q Q Q Q Q Q Q Q Q Q R R R { U Y U U U ",
"U U U U Y T R R R R R R R R R R R R R R R R R R R R R R R R R R R R R R R R R R R R R Q =.Q Q Q Q Q Q Q Q =.Q R R R { U Y U U U ",
"U U U U Y T R R R R R R R R R R R R R R R R R R R R R R R R R R R R R R R R R R R R Q -.;.:.:.:.:.:.:.:.:.>.,.Q R R { U Y U U U ",
"U U U U Y T R R R R R R R R R R R R R R R R R R R R R R R R R R R R R R R R R R R Q Q <.1.1.1.1.1.1.1.1.1.2.3.=.R R { U Y U U U ",
"U U U U Y T R R R R R R R R R R R R R R R R R R R R R R R R R R R R R R R R R R R Q Q 4.5.6.6.6.6.6.6.7.2.1.8.=.R R { U Y U U U ",
"U U U U Y T R R R R R R R R R R R R R R R R R R R R R R R R R R R R R R R R R R R R Q 9.0.q.w.w.w.w.e.r.t.1.4.=.R R { U Y U U U ",
"U U U U Y T R R R R R R R R R R R R R R R R R R R R R R R R R R R R R R R R R R R R R Q =.y.u.i.i.i.p.a.s.8.d.Q R R { U Y U U U ",
"U U U U Y T R R R Q f.f.f.f.f.f.f.f.f.f.f.f.f.f.f.f.f.f.a   R R R R Q f.f.f.f.f.f.f.f.f.f.=.f.f.f.f.f.f.) s s X R R { U Y U U U ",
"U U U U Y T R R R g.h.h.h.h.h.h.h.h.h.h.h.h.h.h.h.h.h.d f g R R R R j.k.h.h.h.h.h.h.h.h.h.h.h.h.h.h.h.h.d h j R R R { U Y U U U ",
"U U U U Y T R R R E Y Y Y Y Y Y Y Y Y Y Y Y Y Y Y Y , k 4 +.R R R R ) U Y Y Y Y Y Y Y Y Y Y Y Y Y Y Y , l z x R R R { U Y U U U ",
"U U U U Y T R R R E W Y l.h.h.h.h.h.h.h.h.h.h.h.h.c v b / ( R R R R ) _ Y U h.h.h.h.h.h.h.h.h.h.h.h.c n m r [ R R R { U Y U U U ",
"U U U U Y T R R R E W Y ' Q Q Q Q Q Q Q Q Q Q Q   O M ^ / ( R R R R ) _ Y ! =.Q Q Q Q Q Q Q Q Q Q   N B V ^ [ R R R { U Y U U U ",
"U U U U Y T R R R E W Y T R R R R R R R R R R X C Z z.^ / ( R R R R ) _ Y ` Q R R R R R R R R R X A S D / ^ [ R R R { U Y U U U ",
"U U U U Y T R R R E W Y T R Q x.E E E E E E E F & U ~ ^ / ( R R R R ) _ Y ` Q R ) E E E E E E E G = - ] / ^ [ R R R { U Y U U U ",
"U U U U Y T R R R E W Y T R Q ! Y U U U U U U H ; U ~ ^ / ( R R R R ) _ Y ` Q R ' Y U U U U U U - ; U ] / ^ [ R R R { U Y U U U ",
"U U U U Y T R R R E W Y T R Q ! Y W W W W W W W U U ~ ^ / ( R R R R ) _ Y ` Q R ' Y W W W W W W W U U ] / ^ [ R R R { U Y U U U ",
"U U U U Y T R R R E W Y T R Q ! Y U U U U U U U U U ~ ^ / ( R R R R ) _ Y ` Q R ' Y U U U U U U U U U ] / ^ [ R R R { U Y U U U ",
"U U U U Y T R R R E W Y T R Q ! Y U U U U U U U U U ~ ^ / ( R R R R ) _ Y ` Q R ' Y U U U U U U U U U ] / ^ [ R R R { U Y U U U ",
"U U U U Y T R R R E W Y T R Q ! Y U U U U U U U U U ~ ^ / ( R R R R ) _ Y ` Q R ' Y U U U U U U U U U ] / ^ [ R R R { U Y U U U ",
"U U U U Y T R R R E W Y T R Q ! Y U U U U U U U U U ~ ^ / ( R R R R ) _ Y ` Q R ' Y U U U U U U U U U ] / ^ [ R R R { U Y U U U ",
"U U U U Y T R R R E W Y T R Q ! Y U U U U U U U U U ~ ^ / ( R R R R ) _ Y ` Q R ' Y U U U U U U U U U ] / ^ [ R R R { U Y U U U ",
"U U U U Y T R R R E W Y T R Q ! Y U U U U U U U U U ~ ^ / ( R R R R ) _ Y ` Q R ' Y U U U U U U U U U ] / ^ [ R R R { U Y U U U ",
"U U U U Y T R R R E W Y T R Q ! Y U U U U U U U U U ~ ^ / ( R R R R ) _ Y ` Q R ' Y U U U U U U U U U ] / ^ [ R R R { U Y U U U ",
"U U U U Y T R R R E W Y T R Q ! Y U U U U U U U U U ~ ^ / ( R R R R ) _ Y ` Q R ' Y U U U U U U U U U ] / ^ [ R R R { U Y U U U ",
"U U U U Y T R R R E W Y T R Q ! Y U U U U U U U U U ~ ^ / ( R R R R ) _ Y ` Q R ' Y U U U U U U U U U ] / ^ [ R R R { U Y U U U ",
"U U U U Y T R R R E W Y T R Q ! Y U U U U U U U U U ~ ^ / ( R R R R ) _ Y ` Q R ' Y U U U U U U U U U ] / ^ [ R R R { U Y U U U ",
"U U U U Y T R R R E W Y T R Q ! Y U U U U U U U U U ~ ^ / ( R R R R ) _ Y ` Q R ' Y U U U U U U U U U ] / ^ [ R R R { U Y U U U ",
"U U U U Y T R R R E W Y T R Q ! Y U U U U U U U U U ~ ^ / ( R R R R ) _ Y ` Q R ' Y U U U U U U U U U ] / ^ [ R R R { U Y U U U ",
"U U U U Y T R R R E W Y T R Q ! Y U U U U U U U U U ~ ^ / ( R R R R ) _ Y ` Q R ' Y U U U U U U U U U ] / ^ [ R R R { U Y U U U ",
"U U U U Y T R R R E W Y T R Q ! Y U U U U U U U U U ~ ^ / ( R R R R ) _ Y ` Q R ' Y U U U U U U U U U ] / ^ [ R R R { U Y U U U ",
"U U U U Y T R R R E W Y T R Q ! Y U U U U U U U U U ~ ^ / ( R R R R ) _ Y ` Q R ' Y U U U U U U U U U ] / ^ [ R R R { U Y U U U ",
"U U U U Y T R R R E W Y T R Q ! Y U U U U U U U U U ~ ^ / ( R R R R ) _ Y ` Q R ' Y U U U U U U U U U ] / ^ [ R R R { U Y U U U ",
"U U U U Y T R R R E W Y T R Q ! Y U U U U U U U U U ~ ^ / ( R R R R ) _ Y ` Q R ' Y U U U U U U U U U ] / ^ [ R R R { U Y U U U ",
"U U U U Y T R R R E W Y T R Q ! Y U U U U U U U U U ~ ^ / ( R R R R ) _ Y ` Q R ' Y U U U U U U U U U ] / ^ [ R R R { U Y U U U ",
"U U U U Y T R R R E W Y T R Q ! Y U U U U U U U U U ~ ^ / ( R R R R ) _ Y ` Q R ' Y U U U U U U U U U ] / ^ [ R R R { U Y U U U ",
"U U U U Y T R R R E W Y T R   . Y U U U U U U U U U ~ ^ / ( R R R R ) _ Y ` Q X J ; U U U U U U U U U ] / ^ [ R R R { U Y U U U ",
"U U U U Y T R R R E W Y T R K L Y U U U U U U U U U ~ ^ / ( R R R R ) _ Y ` Q P I Y U U U U U U U U U ] / ^ [ R R R { U Y U U U "
};
